<svg xmlns="http://www.w3.org/2000/svg" width="1010.374" height="129.188" viewBox="0 0 1010.374 129.188">
  <defs>
    <style>
      .cls-1 {
        fill: #330;
        fill-rule: evenodd;
      }
    </style>
  </defs>
  <path id="logo.svg" class="cls-1" d="M30.071,75.708a4.046,4.046,0,0,0,5.624-.456c0.456-.456,6.383-7.143,13.527-16.718,11.247,20.822,8.511,50.155,1.824,64.9l-11.4-5.471a3.278,3.278,0,0,0-4.408,1.519,3.365,3.365,0,0,0,1.52,4.56l10.943,5.32a3.88,3.88,0,0,0,1.216,5.015,4.118,4.118,0,0,0,5.624-.912c10.183-13.679,17.478-54.867-.152-82.224C57.732,46.222,61.228,40.9,64.42,35.279a4.015,4.015,0,0,0-6.991-3.952q-3.876,6.839-8.207,13.223a67.982,67.982,0,0,0-6.839-6.383,4.03,4.03,0,0,0-5.623.608,4.236,4.236,0,0,0,.608,5.776,33.186,33.186,0,0,1,6.991,6.839C36.606,62.181,29.919,69.78,29.767,69.932A4.089,4.089,0,0,0,30.071,75.708Zm-1.824,31.31a4.09,4.09,0,0,0,5.775-.3c0.456-.608,12.463-13.831,17.934-22.8a4.111,4.111,0,0,0-1.368-5.472,3.93,3.93,0,0,0-5.471,1.216C39.95,88.018,28.1,101.241,27.943,101.393A3.914,3.914,0,0,0,28.247,107.017ZM131.293,19.929a4.411,4.411,0,0,0-4.407,4.408V35.431h-25.23V24.336a4.408,4.408,0,1,0-8.815,0V35.431H80.682a4.028,4.028,0,0,0,0,8.055H92.841V53.67a4.407,4.407,0,1,0,8.815,0V43.487h25.23V53.67a4.407,4.407,0,1,0,8.815,0V43.487h11.7a4.028,4.028,0,0,0,0-8.055H135.7V24.336A4.411,4.411,0,0,0,131.293,19.929ZM147.86,73.884a4.485,4.485,0,0,0-3.344,1.672H94.361a4.028,4.028,0,0,0,0,8.055h15.806v21.582H86.458V78.443a4.41,4.41,0,1,0-8.815,0v66.266a4.446,4.446,0,0,0,8.663,1.368h57.45a4.241,4.241,0,0,0,4.1,3.04,4.41,4.41,0,0,0,4.407-4.408V78.443A4.543,4.543,0,0,0,147.86,73.884Zm-37.693,64.138H86.458V113.1h23.709v24.926Zm33.285,0H118.983V113.1h16.566a3.954,3.954,0,1,0,0-7.9H118.983V83.611h24.469v54.411Zm60.163-68.09c0.76,0.3,7.143,2.888,12.919,2.736,5.471-.152,12.311-0.608,19.606-1.064a112.642,112.642,0,0,1-31.461,56.235,4.037,4.037,0,0,0,0,5.623,3.9,3.9,0,0,0,5.623.152C227.933,116.44,239.18,95.77,244.5,71c12.919-1.064,25.99-1.976,33.589-1.824-2.28,22.646-6.535,47.116-10.031,51.827-2.432-.76-19-6.231-19-6.231a4.052,4.052,0,0,0-5.32,2.432,4.167,4.167,0,0,0,2.736,5.167l20.67,6.84a5.974,5.974,0,0,0,5.016-.912c7.9-5.32,12.462-41.492,14.438-62.467a4.161,4.161,0,0,0-3.5-4.408c-6.84-.76-21.278.152-36.933,1.368,0.76-5.015,1.368-10.183,1.672-15.5a19.767,19.767,0,0,0-4.256-14.135,3.989,3.989,0,1,0-6.079,5.168,12.026,12.026,0,0,1,2.28,8.511A141.153,141.153,0,0,1,237.812,63.4c-8.055.608-15.655,1.064-21.43,1.216-3.5.152-8.056-1.52-9.575-2.128a4.134,4.134,0,0,0-5.32,2.128A4.278,4.278,0,0,0,203.615,69.932ZM437.649,48.35a4.238,4.238,0,0,0-3.191-2.128c-5.472-.3-17.479.912-31.461,2.28-11.247,1.216-22.8,2.28-31.309,2.736-3.344,0-8.512-1.52-10.183-2.128a4.038,4.038,0,1,0-2.736,7.6c0.76,0.3,7.6,2.736,13.375,2.432,8.663-.3,20.366-1.52,31.765-2.584,8.511-.912,17.174-1.824,23.253-2.128-12.006,21.278-34.044,54.715-63.834,77.817a3.819,3.819,0,0,0-1.52,3.192,3.576,3.576,0,0,0,.76,2.432,3.951,3.951,0,0,0,5.624.76c33.893-26.294,58.059-65.506,69.457-86.48A4.186,4.186,0,0,0,437.649,48.35Zm86.609,44.836c0.608,0.152,5.927,1.976,9.271,2.128,14.438,1.064,40.124-3.192,41.188-3.344a3.683,3.683,0,0,0,3.04-4.408,3.755,3.755,0,0,0-4.256-3.04c-0.3,0-25.838,4.256-39.364,3.344a44.339,44.339,0,0,1-7.448-1.824,3.753,3.753,0,0,0-4.711,2.432A3.673,3.673,0,0,0,524.258,93.186Zm-17.631,36.325c0.3,0,7.448,1.823,12.463,1.519l20.366-1.367c18.694-1.52,39.821-3.192,54.107-1.216a3.779,3.779,0,0,0,4.256-3.192A3.673,3.673,0,0,0,594.627,121c-11.551-1.672-27.053-.912-42.252.152,2.28-12.767,1.216-19.91,1.064-20.214a3.57,3.57,0,0,0-4.256-3.04,3.755,3.755,0,0,0-3.039,4.256s1.064,6.991-1.52,19.606c-1.976.152-3.952,0.3-5.776,0.456l-20.062,1.368a44.838,44.838,0,0,1-10.335-1.368A3.76,3.76,0,0,0,506.627,129.511ZM670.6,123.735a247.127,247.127,0,0,1,42.556-20.67,28.254,28.254,0,0,1,1.976,10.639c0,8.359-2.128,13.831-6.079,15.5-4.864,2.127-12.463-.912-20.062-7.9a4.035,4.035,0,0,0-5.472,5.928c10.335,9.423,20.822,12.919,28.725,9.423,4.1-1.824,10.943-7.143,10.943-22.95a34.553,34.553,0,0,0-2.431-13.071c13.222-3.647,22.342-3.5,25.989-.3,4.56,4.256.608,14.591-2.128,20.518a3.919,3.919,0,0,0,1.824,5.32,4.065,4.065,0,0,0,5.32-1.976c6.687-13.831,6.839-23.862.3-29.789-6.84-6.231-19.91-5.623-35.109-1.064-4.256-5.776-9.727-9.727-13.983-12.919-2.735-1.824-5.775-3.952-6.535-5.472,1.52-1.368,5.319-3.5,7.9-5.016,8.055-4.559,15.5-8.815,15.5-14.591,0-8.511-8.815-11.4-16.567-13.831-5.167-1.672-10.943-3.5-12.463-6.535a3.972,3.972,0,0,0-7.6,1.672,3.064,3.064,0,0,0,.456,1.672c2.888,6.231,10.487,8.663,17.174,10.791,5.016,1.672,10.64,3.5,10.943,5.927-1.063,1.976-7.751,5.776-11.4,7.9-7.3,4.1-12.159,6.991-12.159,11.4,0,5.471,4.863,8.967,10.031,12.767,3.5,2.432,7.447,5.168,10.639,8.967-13.831,5.015-28.726,12.614-42.4,20.822-1.976,1.064-8.512,4.255-13.983-1.216a3.951,3.951,0,0,0-5.775,0,4.037,4.037,0,0,0,0,5.623C654.486,129.055,664.365,127.383,670.6,123.735ZM877.273,59.141c-12.918,0-27.661,6.232-41.644,16.719l7.6-12.463a4.178,4.178,0,0,0-4.1-6.232c-2.432.456-4.56,0.912-6.687,1.216,0.151-2.432.455-4.712,0.607-6.839,1.064-9.119-3.647-17.478-3.8-17.782a4.016,4.016,0,0,0-6.992,3.952s3.5,6.383,2.888,12.919a86.189,86.189,0,0,0-.912,9.423c-12.919,3.04-20.366,6.079-22.038,9.119a3.927,3.927,0,0,0,1.368,5.32,4.5,4.5,0,0,0,5.624-1.216l-0.3.3c1.368-1.368,7.295-3.192,14.742-5.016-0.152,4.1-.456,8.207-0.608,12.463-4.711,7.9-9.271,15.2-9.271,15.2a4.312,4.312,0,0,1,1.52-1.368,136.052,136.052,0,0,0-14.439,19.91,4.111,4.111,0,0,0,1.368,5.471,3.818,3.818,0,0,0,5.472-1.367,140.061,140.061,0,0,1,14.894-20.063c-0.456,20.214-.152,37.541-0.152,38.757a4.086,4.086,0,0,0,4.1,4.1,4.27,4.27,0,0,0,3.952-4.1c0-.456-0.3-23.1.3-47.116,15.2-14.135,32.525-23.254,46.507-23.254,15.351,0,23.1,11.7,24.166,23.1,1.216,15.807-8.967,33.589-34.8,38a3.962,3.962,0,0,0-3.343,4.559A4.11,4.11,0,0,0,868,136.2c30.7-5.168,43.012-27.814,41.34-46.508C907.823,71.756,894.752,59.141,877.273,59.141ZM1017.23,40.295c-14.14,0-20.52,22.8-26.3,42.86-1.672,5.776-3.8,13.527-5.471,16.415A3.925,3.925,0,0,1,984.4,97.9c-1.52-2.736-2.432-6.991-2.432-12.311A57.9,57.9,0,0,1,991.7,54.43a21.9,21.9,0,0,0,3.8-12.463,26.118,26.118,0,0,0-3.04-12.007,3.861,3.861,0,0,0-5.472-1.52,3.977,3.977,0,0,0-1.519,5.319c0.152,0.456,4.559,8.663-.456,16.263-12.311,18.39-13.679,40.732-7.752,51.675,3.04,5.624,6.992,6.535,9.119,6.535,5.776,0,7.9-7.751,12.311-22.949,3.954-13.831,10.484-36.933,18.544-36.933,2.89,0,8.36,7.6,10.79,21.582,4.26,24.166-1.82,56.387-32.981,67.786a4.038,4.038,0,1,0,2.735,7.6c33.586-12.311,43.466-47.42,38.146-76.9C1033.64,55.493,1027.41,40.295,1017.23,40.295Z" transform="translate(-26.906 -19.938)"/>
</svg>
